<?xml version="1.0" encoding="utf-8"?>
<!-- Generator: Adobe Illustrator 24.0.1, SVG Export Plug-In . SVG Version: 6.00 Build 0)  -->
<svg version="1.1" id="Layer_1" xmlns="http://www.w3.org/2000/svg" xmlns:xlink="http://www.w3.org/1999/xlink" x="0px" y="0px"
	 viewBox="0 0 161.3 186.2" style="enable-background:new 0 0 161.3 186.2;" xml:space="preserve">
<style type="text/css">
	.st0{fill:#010101;}
	.st1{fill:#FFFFFF;}
	.st2{stroke:#FFFFFF;stroke-width:0.4675;stroke-miterlimit:10;}
</style>
<g id="Layer_95_1_">
	<path class="st0" d="M80.6,8.7l73.1,42.2v84.4l-73.1,42.2L7.5,135.3V50.9L80.6,8.7 M80.6,0l-3.8,2.2L3.8,44.4L0,46.5v93.1l3.8,2.2
		L76.9,184l3.8,2.2l3.8-2.2l73.1-42.2l3.8-2.2V46.5l-3.8-2.2L84.4,2.2L80.6,0L80.6,0z"/>
</g>
<g>
	<polygon points="71.6,101.4 82.1,106.3 108.9,89.7 113.6,68 92,62.7 65.3,79.5 65.1,91.3 	"/>
	<polygon points="68.9,115.7 73.4,93 51.3,87.1 37.9,96.2 53,105.8 54.8,123.6 	"/>
	<rect x="66.7" y="87" transform="matrix(0.8484 -0.5294 0.5294 0.8484 -40.6408 50.7263)" class="st1" width="3" height="18.6"/>
</g>
<polygon points="82,152.6 88.3,155.5 104.4,145.5 107.2,132.4 94.2,129.2 78.2,139.4 78.1,146.5 "/>
<polygon points="80.4,161.2 83,147.5 69.7,144 61.7,149.5 70.8,155.2 71.9,166 "/>
<rect x="79" y="143.9" transform="matrix(0.8471 -0.5314 0.5314 0.8471 -67.2359 65.3374)" class="st1" width="1.8" height="11.2"/>
<polygon points="68.6,44.9 74.9,47.9 91.1,37.9 93.9,24.9 81,21.6 64.9,31.7 64.7,38.8 "/>
<polygon points="67,53.5 69.7,39.8 56.4,36.2 48.4,41.7 57.4,47.5 58.4,58.2 "/>
<rect x="65.7" y="36.2" transform="matrix(0.8508 -0.5255 0.5255 0.8508 -12.032 41.2257)" class="st1" width="1.8" height="11.2"/>
<rect x="36.2" y="113.2" transform="matrix(0.5314 0.8471 -0.8471 0.5314 124.4146 26.8538)" class="st2" width="3.4" height="25.5"/>
<rect x="53.2" y="58.2" transform="matrix(0.5314 0.8471 -0.8471 0.5314 85.7746 -13.2723)" class="st2" width="3.4" height="25.5"/>
<rect x="68" y="116.5" transform="matrix(0.5314 0.8471 -0.8471 0.5314 142.1533 1.5167)" class="st2" width="3.4" height="25.5"/>
<rect x="33.1" y="42.7" transform="matrix(0.5314 0.8471 -0.8471 0.5314 63.2731 -3.5476)" class="st2" width="3.4" height="25.5"/>
</svg>
