<?xml version="1.0" encoding="utf-8"?>
<!-- Generator: Adobe Illustrator 24.0.1, SVG Export Plug-In . SVG Version: 6.00 Build 0)  -->
<svg version="1.1" id="Layer_1" xmlns="http://www.w3.org/2000/svg" xmlns:xlink="http://www.w3.org/1999/xlink" x="0px" y="0px"
	 viewBox="0 0 161.3 186.2" style="enable-background:new 0 0 161.3 186.2;" xml:space="preserve">
<style type="text/css">
	.st0{fill:#010101;}
	.st1{fill:#FFFFFF;}
</style>
<g id="Layer_95_1_">
	<path class="st0" d="M80.6,8.7l73.1,42.2v84.4l-73.1,42.2L7.5,135.3V50.9L80.6,8.7 M80.6,0l-3.8,2.2l-73,42.2L0,46.5v93.1l3.8,2.2
		L76.9,184l3.8,2.2l3.8-2.2l73.1-42.2l3.8-2.2V46.5l-3.8-2.2L84.4,2.2L80.6,0L80.6,0z"/>
</g>
<g>
	<polygon points="71.6,101.4 82.1,106.3 108.9,89.7 113.6,68 92,62.7 65.3,79.5 65.1,91.3 	"/>
	<polygon points="68.9,115.7 73.4,93 51.3,87.1 37.9,96.2 53,105.8 54.8,123.6 	"/>
	<rect x="66.7" y="87" transform="matrix(0.8484 -0.5294 0.5294 0.8484 -40.6511 50.7093)" class="st1" width="3" height="18.6"/>
</g>
<g>
	<polygon points="82.3,149.7 88.6,152.6 104.7,142.6 107.5,129.5 94.5,126.3 78.5,136.5 78.4,143.6 	"/>
	<polygon points="80.7,158.3 83.3,144.6 70,141.1 62,146.6 71.1,152.3 72.2,163.1 	"/>
	
		<rect x="79.3" y="141" transform="matrix(0.8471 -0.5314 0.5314 0.8471 -65.6672 65.0371)" class="st1" width="1.8" height="11.2"/>
</g>
<g>
	<polygon points="70.1,45.9 76.4,48.9 92.6,38.9 95.4,25.9 82.5,22.6 66.4,32.7 66.2,39.8 	"/>
	<polygon points="68.5,54.5 71.2,40.8 57.9,37.2 49.9,42.7 58.9,48.5 59.9,59.2 	"/>
	
		<rect x="67.2" y="37.2" transform="matrix(0.8508 -0.5255 0.5255 0.8508 -12.3083 42.1674)" class="st1" width="1.8" height="11.2"/>
</g>
<rect x="53.2" y="126.2" transform="matrix(0.8471 -0.5314 0.5314 0.8471 -57.5222 57.0024)" width="34.2" height="4.6"/>
<rect x="15.6" y="121.8" transform="matrix(0.8471 -0.5314 0.5314 0.8471 -60.9366 36.361)" width="34.2" height="4.6"/>
<rect x="37.5" y="70.1" transform="matrix(0.8471 -0.5314 0.5314 0.8471 -30.1007 40.0502)" width="34.2" height="4.6"/>
<rect x="13.6" y="58.2" transform="matrix(0.8471 -0.5314 0.5314 0.8471 -27.4156 25.5663)" width="34.2" height="4.6"/>
</svg>
