<?xml version="1.0" encoding="utf-8"?>
<!-- Generator: Adobe Illustrator 24.0.1, SVG Export Plug-In . SVG Version: 6.00 Build 0)  -->
<svg version="1.1" id="Layer_1" xmlns="http://www.w3.org/2000/svg" xmlns:xlink="http://www.w3.org/1999/xlink" x="0px" y="0px"
	 viewBox="0 0 276.4 319.2" style="enable-background:new 0 0 276.4 319.2;" xml:space="preserve">
<style type="text/css">
	.st0{fill:#010101;}
	.st1{fill:none;stroke:#010101;stroke-width:2.8282;stroke-miterlimit:10;}
	.st2{fill:none;stroke:#000000;stroke-width:2.8282;stroke-miterlimit:10;}
</style>
<path class="st0" d="M192.9,98.6h-33.5L153,85.7l-0.1-0.1h-29.8l-0.1,0.1l-6.4,12.9H82.9V117l0.2,0l25.9,6.5v19l0.1,0.1l13.4,6.7
	l6.7,20.2l0.1,0.2h17.4l0.1-0.2l6.8-20.2l13.4-6.7l0.1-0.1v-19.1l25.9-6.5l0.2,0V98.6L192.9,98.6z M150.6,100h-25.2v-5.1h25.2V100z"
	/>
<polygon class="st0" points="83.2,168.5 101.8,177.8 101.8,128.7 83.2,124.1 "/>
<path class="st0" d="M83.2,124.1l18.6,4.7v49l-18.6-9.3V124.1 M82.9,123.8v44.9l0.1,0.1l18.6,9.3l0.4,0.2v-49.6l-0.2,0l-18.6-4.7
	L82.9,123.8L82.9,123.8z"/>
<polygon class="st0" points="154.8,172.1 148.3,178.6 148.3,221.6 166.9,221.6 166.9,157.4 154.8,157.4 "/>
<path class="st0" d="M166.9,157.4v64.2h-18.6v-43l6.5-6.5v-14.7H166.9 M167.1,157.2h-12.6V172l-6.4,6.4l-0.1,0.1v43.4h19.1
	L167.1,157.2L167.1,157.2z"/>
<polygon class="st0" points="121.3,157.4 109.2,157.4 109.2,221.6 127.8,221.6 127.8,178.6 121.3,172.1 "/>
<path class="st0" d="M121.3,157.4v14.7l6.5,6.5v43h-18.6v-64.2H121.3 M121.6,157.2h-12.6v64.7h19.1v-43.4l-0.1-0.1l-6.4-6.4V157.2z"
	/>
<polygon class="st0" points="174.3,177.8 192.9,168.5 192.9,124.1 174.3,128.7 "/>
<path class="st0" d="M192.9,124.1v44.4l-18.6,9.3v-49L192.9,124.1 M193.2,123.8l-0.3,0.1l-18.6,4.7l-0.2,0.1v49.6l0.4-0.2l18.6-9.3
	l0.1-0.1L193.2,123.8L193.2,123.8z"/>
<g id="Layer_47_1_">
	<path class="st0" d="M138.2,14.9l125.3,72.3v144.7l-125.3,72.3L12.9,231.9V87.3L138.2,14.9 M138.2,0l-6.5,3.7L6.5,76.1L0,79.8
		v159.6l6.5,3.7l125.3,72.3l6.5,3.7l6.5-3.7l125.3-72.3l6.5-3.7V79.8l-6.5-3.7L144.7,3.7L138.2,0L138.2,0z"/>
</g>
<polygon class="st1" points="82.9,249.7 87.2,211 66.6,211 71.4,249.7 "/>
<path class="st1" d="M66.5,202.3h38.3v-15.7H80.1l-13.7,15.6C66.4,202.2,66.4,202.3,66.5,202.3z"/>
<polygon class="st1" points="193.2,249.7 188.9,211 209.5,211 204.7,249.7 "/>
<path class="st1" d="M209.6,202.3h-38.3v-15.7H196l13.7,15.6C209.7,202.2,209.7,202.3,209.6,202.3z"/>
<line class="st2" x1="12.2" y1="227.2" x2="61.3" y2="227.2"/>
<line class="st2" x1="212.9" y1="227.2" x2="265.2" y2="227.2"/>
<line class="st2" x1="92.5" y1="227.2" x2="184.9" y2="227.2"/>
</svg>
