<?xml version="1.0" encoding="utf-8"?>
<!-- Generator: Adobe Illustrator 24.0.1, SVG Export Plug-In . SVG Version: 6.00 Build 0)  -->
<svg version="1.1" id="Layer_1" xmlns="http://www.w3.org/2000/svg" xmlns:xlink="http://www.w3.org/1999/xlink" x="0px" y="0px"
	 viewBox="0 0 276.4 319.2" style="enable-background:new 0 0 276.4 319.2;" xml:space="preserve">
<style type="text/css">
	.st0{fill:#010101;}
	.st1{fill:none;stroke:#010101;stroke-width:1.3629;stroke-miterlimit:10;}
	.st2{fill:none;stroke:#010101;stroke-width:1.5437;stroke-miterlimit:10;}
	.st3{fill:none;stroke:#000000;stroke-width:3;stroke-miterlimit:10;}
</style>
<path class="st0" d="M196.3,94.2h-35.5l-6.8-13.7l-0.1-0.2h-31.6l-0.1,0.2l-6.8,13.7H79.5v19.6l0.2,0l27.4,6.9v20.2l0.2,0.1
	l14.3,7.1l7.2,21.5l0.1,0.2h18.5l0.1-0.2l7.2-21.5l14.3-7.1l0.2-0.1v-20.2l27.4-6.9l0.2,0V94.2L196.3,94.2z M151.4,95.7h-26.7v-5.4
	h26.7V95.7z"/>
<polygon class="st0" points="79.8,168.3 99.6,178.2 99.6,126.2 79.8,121.3 "/>
<path class="st0" d="M79.8,121.3l19.7,4.9v52l-19.7-9.9V121.3 M79.5,120.9v47.6l0.1,0.1l19.7,9.9l0.4,0.2V126l-0.2,0l-19.8-5
	L79.5,120.9L79.5,120.9z"/>
<polygon class="st0" points="155.8,172.2 148.9,179.1 148.9,224.7 168.6,224.7 168.6,156.6 155.8,156.6 "/>
<path class="st0" d="M168.6,156.6v68.1h-19.7v-45.6l6.9-6.9v-15.6H168.6 M168.9,156.4h-13.3v15.7l-6.8,6.8l-0.1,0.1v46h20.3
	L168.9,156.4L168.9,156.4z"/>
<polygon class="st0" points="120.3,156.6 107.4,156.6 107.4,224.7 127.2,224.7 127.2,179.1 120.3,172.2 "/>
<path class="st0" d="M120.3,156.6v15.6l6.9,6.9v45.6h-19.7v-68.1H120.3 M120.5,156.4h-13.4V225h20.3v-46l-0.1-0.1l-6.8-6.8V156.4z"
	/>
<polygon class="st0" points="176.5,178.2 196.3,168.3 196.3,121.3 176.5,126.2 "/>
<path class="st0" d="M196.3,121.3v47.1l-19.7,9.9v-52L196.3,121.3 M196.5,120.9l-0.3,0.1l-19.7,4.9l-0.2,0.1v52.7l0.4-0.2l19.8-9.9
	l0.2-0.1L196.5,120.9L196.5,120.9z"/>
<g id="Layer_47_1_">
	<path class="st0" d="M138.2,14.9l125.3,72.3v144.7l-125.3,72.3L12.9,231.9V87.3L138.2,14.9 M138.2,0l-6.5,3.7L6.5,76.1L0,79.8
		v159.6l6.5,3.7l125.3,72.3l6.5,3.7l6.5-3.7l125.3-72.3l6.5-3.7V79.8l-6.5-3.7L144.7,3.7L138.2,0L138.2,0z"/>
</g>
<polygon class="st1" points="79.6,254.5 84.1,213.5 62.2,213.5 67.3,254.5 "/>
<path class="st2" d="M62.1,204.2h40.6v-16.6H76.6l-14.5,16.5C62,204.1,62,204.2,62.1,204.2z"/>
<polygon class="st1" points="196.5,254.5 192,213.5 213.9,213.5 208.8,254.5 "/>
<path class="st2" d="M214,204.2h-40.6v-16.6h26.2l14.5,16.5C214.1,204.1,214,204.2,214,204.2z"/>
<line class="st3" x1="12.9" y1="230.6" x2="56.7" y2="230.6"/>
<line class="st3" x1="217.4" y1="230.6" x2="263.5" y2="230.6"/>
<line class="st3" x1="89.7" y1="230.6" x2="187.7" y2="230.6"/>
</svg>
