<?xml version="1.0" encoding="utf-8"?>
<!-- Generator: Adobe Illustrator 24.0.1, SVG Export Plug-In . SVG Version: 6.00 Build 0)  -->
<svg version="1.1" id="Layer_1" xmlns="http://www.w3.org/2000/svg" xmlns:xlink="http://www.w3.org/1999/xlink" x="0px" y="0px"
	 viewBox="0 0 276.4 319.2" style="enable-background:new 0 0 276.4 319.2;" xml:space="preserve">
<style type="text/css">
	.st0{fill:#010101;}
	.st1{fill:#FFFFFF;}
	.st2{fill:none;stroke:#010101;stroke-width:7;stroke-miterlimit:10;}
</style>
<path class="st0" d="M192.9,94h-33.5L153,81.1l-0.1-0.1h-29.8l-0.1,0.1L116.6,94H82.9v18.4h0.2l25.9,6.5v19l0.1,0.1l13.4,6.7
	l6.7,20.2l0.1,0.2h17.4l0.1-0.2l6.8-20.2L167,138l0.1-0.1v-19.1l25.9-6.5h0.2V94H192.9z M150.6,95.4h-25.2v-5.1h25.2V95.4z"/>
<polygon class="st0" points="83.2,163.9 101.8,173.2 101.8,124.1 83.2,119.5 "/>
<path class="st0" d="M83.2,119.5l18.6,4.7v49l-18.6-9.3V119.5 M82.9,119.2v44.9l0.1,0.1l18.6,9.3l0.4,0.2v-49.6h-0.2l-18.6-4.7
	L82.9,119.2L82.9,119.2z"/>
<g>
	<polygon class="st0" points="154.8,167.5 148.3,174 148.3,217 166.9,217 166.9,152.8 154.8,152.8 	"/>
	<path class="st0" d="M166.9,152.8V217h-18.6v-43l6.5-6.5v-14.7H166.9 M167.1,152.6h-12.6v14.8l-6.4,6.4l-0.1,0.1v43.4h19.1V152.6
		L167.1,152.6z"/>
</g>
<g>
	<polygon class="st0" points="121.3,152.8 109.2,152.8 109.2,217 127.8,217 127.8,174 121.3,167.5 	"/>
	<path class="st0" d="M121.3,152.8v14.7l6.5,6.5v43h-18.6v-64.2H121.3 M121.6,152.6H109v64.7h19.1v-43.4l-0.1-0.1l-6.4-6.4V152.6z"
		/>
</g>
<polygon class="st0" points="174.3,173.2 192.9,163.9 192.9,119.5 174.3,124.1 "/>
<path class="st0" d="M192.9,119.5v44.4l-18.6,9.3v-49L192.9,119.5 M193.2,119.2l-0.3,0.1l-18.6,4.7l-0.2,0.1v49.6l0.4-0.2l18.6-9.3
	l0.1-0.1V119.2L193.2,119.2z"/>
<g id="Layer_47_1_">
	<path class="st0" d="M138.2,14.9l125.3,72.3v144.7l-125.3,72.3L12.9,231.9V87.3L138.2,14.9 M138.2,0l-6.5,3.7L6.5,76.1L0,79.8
		v159.6l6.5,3.7l125.3,72.3l6.5,3.7l6.5-3.7l125.3-72.3l6.5-3.7V79.8l-6.5-3.7L144.7,3.7L138.2,0L138.2,0z"/>
</g>
<polygon class="st0" points="206,242.5 201.7,203.8 222.3,203.8 217.5,242.5 "/>
<path class="st0" d="M226,194.9h-42.4v-15.7H211l15.2,15.6C226.1,194.8,226.1,194.9,226,194.9z"/>
<polygon class="st0" points="58.6,242.5 53.8,203.8 74.4,203.8 70.1,242.5 "/>
<path class="st0" d="M50,194.8l15.2-15.6h27.3v15.7H50.1C50,194.9,50,194.8,50,194.8z"/>
<rect x="98.5" y="205.6" class="st1" width="79.6" height="26.4"/>
<line class="st2" x1="263.5" y1="207" x2="232.2" y2="207"/>
<line class="st2" x1="42.7" y1="207" x2="12.9" y2="207"/>
<line class="st2" x1="189.2" y1="207.3" x2="86.3" y2="207.3"/>
</svg>
