<?xml version="1.0" encoding="utf-8"?>
<!-- Generator: Adobe Illustrator 24.0.1, SVG Export Plug-In . SVG Version: 6.00 Build 0)  -->
<svg version="1.1" id="Layer_1" xmlns="http://www.w3.org/2000/svg" xmlns:xlink="http://www.w3.org/1999/xlink" x="0px" y="0px"
	 viewBox="0 0 758.5 875.4" style="enable-background:new 0 0 758.5 875.4;" xml:space="preserve">
<style type="text/css">
	.st0{fill:#010101;}
</style>
<path d="M484.3,711.1l24.8-92.2l40.3-8.3l0.4-0.1l22-82.1l-0.4-0.3l-30.5-27.3l24.9-92.9l-50.9-13.5l-0.3,0.5l-36.9,66.4l-52.5-14
	l-0.3,0.4l-28.4,32l-60.7,3.6h-0.5l-12.9,48l0.4,0.3l50.8,33.6l8.5,42l0.1,0.4l52.5,14.1l-1.3,76v0.5l50.9,13.6V711.1z M511.7,593.5
	l18.7-69.5l14,3.7l-18.7,69.5L511.7,593.5z"/>
<g>
	<polygon class="st0" points="301.2,578.3 278.5,564.2 158,591 169.5,642.9 349.8,603.1 342.2,569.2 	"/>
	<path class="st0" d="M349.8,603.1L169.4,643l-11.6-52.4l120.9-26.8l22.4,14.3l41.2-9.2L349.8,603.1 M350.6,603.9l-7.9-35.3
		l-41.7,9.3l-22-14l-0.4-0.3l-121.8,27.1l11.9,53.6L350.6,603.9L350.6,603.9z"/>
</g>
<g>
	<polygon class="st0" points="367.3,463.2 390.2,437 251.1,315.5 216,355.9 308.9,437.3 335.6,435.7 	"/>
	<path class="st0" d="M367.3,463.2l-31.7-27.6l-26.4,1.7L216,355.9l35.3-40.5l139,121.6L367.3,463.2 M367.3,464.2l23.7-27.3
		L250.7,314.5l-35.9,41.3l94,82h0.4l26-1.7L367.3,464.2L367.3,464.2z"/>
</g>
<g>
	<polygon class="st0" points="527.9,320.1 487.3,282.4 425.8,394.1 459.9,443.5 	"/>
	<path class="st0" d="M487.4,282.4l40.5,37.6L460,443.6l-34.1-49.3L487.4,282.4 M487.1,280.9l-61.7,113l0.1,0.4l34.1,49.3l0.5,0.9
		l68.7-125.2l-0.5-0.3l-40.5-37.6L487.1,280.9L487.1,280.9z"/>
</g>
<g>
	<polygon class="st0" points="411.8,630 358.1,656.7 357.7,784.4 411.5,770.9 	"/>
	<path class="st0" d="M357.8,784.4l0.4-127.6l53.7-26.7l-0.4,141L357.8,784.4 M356.9,785.3l0.9-0.3l53.7-13.3h0.5l0.5-142.8
		l-0.9,0.5L358,656.1l-0.3,0.3L356.9,785.3L356.9,785.3z"/>
</g>
<g id="Layer_95_14_">
	<path class="st0" d="M379.4,41l343.7,198.4v396.8L379.4,834.6L35.7,636.2V239.4L379.4,41 M379.4,0l-17.7,10.2L18,208.6L0.3,218.8
		v437.8L18,666.8l343.7,198.4l17.7,10.2l17.7-10.2l343.7-198.4l17.7-10.2V218.8l-17.7-10.2L397.1,10.2L379.4,0L379.4,0z"/>
</g>
<path class="st0" d="M455.6,235.4l-47-1.6L346.3,32.3l41.9-15L455.6,235.4z"/>
<path class="st0" d="M455.6,235.9l-132.1-2.1l-17.9-57.8l132.1,2.1L455.6,235.9z"/>
<path class="st0" d="M410.4,365.2l-47-2l-40.8-130.7l30.3-54.5L410.4,365.2z"/>
<polygon class="st0" points="404.6,427.9 344.1,352.7 383.2,348.5 "/>
<polygon class="st0" points="403.8,427.9 418.9,332.7 383,348.9 "/>
</svg>
