<?xml version="1.0" encoding="utf-8"?>
<!-- Generator: Adobe Illustrator 24.0.1, SVG Export Plug-In . SVG Version: 6.00 Build 0)  -->
<svg version="1.1" id="Layer_1" xmlns="http://www.w3.org/2000/svg" xmlns:xlink="http://www.w3.org/1999/xlink" x="0px" y="0px"
	 viewBox="0 0 758.5 875.4" style="enable-background:new 0 0 758.5 875.4;" xml:space="preserve">
<style type="text/css">
	.st0{fill:#010101;}
</style>
<path d="M483.7,752.6l17.7-69.4l30.1-6.6l0.3-0.1l15.7-61.8l-0.3-0.2L524,594.3l17.8-69.9l-38.3-9.7l-0.2,0.4l-27,50.2l-39.5-10
	l-0.2,0.3l-21,24.3l-45.5,3.3l-0.4,0l-9.2,36.1l0.3,0.2l38.4,24.7l6.8,31.4l0.1,0.3l39.5,10.1l-0.2,57l0,0.4l38.3,9.7L483.7,752.6z
	 M503,664.1l13.3-52.3l10.5,2.7l-13.3,52.3L503,664.1z"/>
<polygon class="st0" points="345,654.8 327.9,644.4 237.7,665.7 246.8,704.6 381.7,672.9 375.7,647.6 "/>
<path class="st0" d="M381.7,672.9l-134.9,31.7l-9.2-39.2l90.4-21.3l16.9,10.5l30.8-7.3L381.7,672.9 M382.3,673.5l-6.2-26.4
	l-31.2,7.4l-16.6-10.3L328,644l-91.1,21.5l9.4,40.1L382.3,673.5L382.3,673.5z"/>
<polygon class="st0" points="393.4,567.9 410.4,547.9 304.8,458.2 278.9,488.9 349.4,548.9 369.4,547.5 "/>
<path class="st0" d="M393.4,567.9l-24-20.4l-19.8,1.6l-70.7-60.2l26.1-30.7l105.5,89.7L393.4,567.9 M393.5,568.6l17.5-20.7
	l-106.5-90.4L278,488.9l71.3,60.6h0.3l19.5-1.6L393.5,568.6L393.5,568.6z"/>
<g>
	<polygon class="st0" points="420.9,689.2 380.6,709.3 380.5,805 420.8,795 	"/>
	<path class="st0" d="M380.7,805l0.1-95.7l40.3-20.1L421,795L380.7,805 M380.1,805.7l0.7-0.2l40.3-10h0.4l0.1-107.2l-0.7,0.4
		l-40.3,20.1l-0.2,0.2L380.1,805.7L380.1,805.7z"/>
</g>
<g>
	<polygon class="st0" points="512.5,458.8 481.7,430.9 436.7,515.4 462.8,552.1 	"/>
	<path class="st0" d="M481.8,430.9l30.8,27.8l-49.7,93.4l-26.1-36.7L481.8,430.9 M481.5,429.9l-45.2,85.4l0.1,0.3l26.1,36.7l0.4,0.7
		l50.3-94.6l-0.4-0.2L482,430.4L481.5,429.9L481.5,429.9z"/>
</g>
<g id="Layer_95_14_">
	<path class="st0" d="M379.4,41l343.7,198.4v396.8L379.4,834.6L35.7,636.2V239.4L379.4,41 M379.4,0l-17.7,10.2L18,208.6L0.3,218.8
		v437.8L18,666.8l343.7,198.4l17.7,10.2l17.7-10.2l343.7-198.4l17.7-10.2V218.8l-17.7-10.2L397.1,10.2L379.4,0L379.4,0z"/>
</g>
<g>
	<g>
		<path class="st0" d="M442.4,280.1l-56.9-1.9L316.8,56.1l50.7-18.2L442.4,280.1z"/>
		<path class="st0" d="M442.4,280.1l-120.5-5l-21.6-69.9l120.5,5L442.4,280.1z"/>
		<path class="st0" d="M427.1,434.1l-56.9-2.4l-49.4-158.2l36.6-65.9L427.1,434.1z"/>
	</g>
</g>
<polygon class="st0" points="420.1,509.9 346.9,418.8 394.2,413.9 "/>
<polygon class="st0" points="419.2,509.9 437.4,394.6 394,414.3 "/>
</svg>
