<?xml version="1.0" encoding="utf-8"?>
<!-- Generator: Adobe Illustrator 24.0.1, SVG Export Plug-In . SVG Version: 6.00 Build 0)  -->
<svg version="1.1" id="Layer_1" xmlns="http://www.w3.org/2000/svg" xmlns:xlink="http://www.w3.org/1999/xlink" x="0px" y="0px"
	 viewBox="0 0 758.5 875.4" style="enable-background:new 0 0 758.5 875.4;" xml:space="preserve">
<style type="text/css">
	.st0{fill:#010101;}
</style>
<path d="M476.5,703.4l16.3-64l27.7-6.1l0.3-0.1l14.5-57l-0.3-0.2l-21.4-18.6l16.4-64.4l-35.3-8.9l-0.2,0.4l-24.9,46.3l-36.4-9.2
	l-0.2,0.3l-19.4,22.4l-41.9,3h-0.4l-8.5,33.3l0.3,0.2l35.4,22.8l6.3,28.9l0.1,0.3l36.4,9.3l-0.2,52.5v0.4l35.3,8.9L476.5,703.4z
	 M494.3,621.8l12.3-48.2l9.7,2.5L504,624.3L494.3,621.8z"/>
<polygon class="st0" points="348.7,613.2 332.9,603.6 249.8,623.3 258.2,659.1 382.5,629.9 377,606.6 "/>
<path class="st0" d="M382.5,629.9l-124.4,29.2l-8.5-36.1l83.3-19.6l15.6,9.7l28.4-6.7L382.5,629.9 M383.1,630.5l-5.7-24.3l-28.8,6.8
	l-15.3-9.5l-0.3-0.2l-84,19.8l8.7,37L383.1,630.5L383.1,630.5z"/>
<polygon class="st0" points="393.3,533.1 409,514.7 311.6,432 287.8,460.3 352.7,515.6 371.2,514.3 "/>
<path class="st0" d="M393.3,533.1l-22.1-18.8l-18.3,1.5l-65.2-55.5l24.1-28.3l97.2,82.7L393.3,533.1 M393.4,533.8l16.1-19.1
	l-98.2-83.3l-24.4,28.9l65.7,55.9h0.3l18-1.5L393.4,533.8L393.4,533.8z"/>
<g>
	<polygon class="st0" points="418.7,644.9 381.5,663.5 381.4,751.7 418.6,742.5 	"/>
	<path class="st0" d="M381.6,751.7l0.1-88.2l37.1-18.5l-0.1,97.5L381.6,751.7 M381,752.3l0.6-0.2l37.1-9.2h0.4l0.1-98.8l-0.6,0.4
		L381.5,663l-0.2,0.2L381,752.3L381,752.3z"/>
</g>
<g>
	<polygon class="st0" points="503.1,432.5 474.7,406.8 433.2,484.7 457.3,518.5 	"/>
	<path class="st0" d="M474.8,406.8l28.4,25.6l-45.8,86.1l-24.1-33.8L474.8,406.8 M474.5,405.9l-41.7,78.7l0.1,0.3l24.1,33.8l0.4,0.6
		l46.4-87.2l-0.4-0.2L475,406.4L474.5,405.9L474.5,405.9z"/>
</g>
<g id="Layer_95_14_">
	<path class="st0" d="M379.4,41l343.7,198.4v396.8L379.4,834.6L35.7,636.2V239.4L379.4,41 M379.4,0l-17.7,10.2L18,208.6L0.3,218.8
		v437.8L18,666.8l343.7,198.4l17.7,10.2l17.7-10.2l343.7-198.4l17.7-10.2V218.8l-17.7-10.2L397.1,10.2L379.4,0L379.4,0z"/>
</g>
<g>
	<g>
		<g>
			<path class="st0" d="M438.5,302.2l-52.5-1.5l-63.3-171.5l46.7-14.1L438.5,302.2z"/>
			<path class="st0" d="M438.5,302.2l-111.1-3.9l-19.9-54l111.1,3.9L438.5,302.2z"/>
			<path class="st0" d="M424.4,421.1l-52.5-1.9l-45.5-122.1l33.7-50.9L424.4,421.1z"/>
		</g>
	</g>
	<polygon class="st0" points="417.9,479.6 350.4,409.3 394,405.5 	"/>
	<polygon class="st0" points="417.1,479.6 433.9,390.6 393.9,405.8 	"/>
</g>
</svg>
