<?xml version="1.0" encoding="utf-8"?>
<!-- Generator: Adobe Illustrator 24.0.1, SVG Export Plug-In . SVG Version: 6.00 Build 0)  -->
<svg version="1.1" id="Layer_1" xmlns="http://www.w3.org/2000/svg" xmlns:xlink="http://www.w3.org/1999/xlink" x="0px" y="0px"
	 viewBox="0 0 535 617.7" style="enable-background:new 0 0 535 617.7;" xml:space="preserve">
<style type="text/css">
	.st0{fill:#010101;}
</style>
<g id="Layer_95">
	<path class="st0" d="M267.5,28.9l242.5,140v280l-242.5,140L25,448.9v-280L267.5,28.9 M267.5,0L255,7.2l-242.5,140L0,154.4v308.9
		l12.5,7.2l242.5,140l12.5,7.2l12.5-7.2l242.5-140l12.5-7.2V154.4l-12.5-7.2L280,7.2L267.5,0L267.5,0z"/>
</g>
<rect x="382" y="221.9" transform="matrix(0.8979 -0.4401 0.4401 0.8979 -58.5012 204.1255)" class="st0" width="57.8" height="12.6"/>
<polygon class="st0" points="501.5,184.2 490.8,195.7 437.3,222.3 432,210.9 476.5,189.6 "/>
<rect x="433.9" y="203.3" transform="matrix(0.8979 -0.4401 0.4401 0.8979 -50.5532 213.8994)" class="st0" width="4.1" height="25.3"/>
<polygon class="st0" points="123.8,384.9 75.3,440.4 44.6,399.8 103,357.4 "/>
<polygon class="st0" points="163.5,345.2 123.6,384.8 102.9,357.7 145.1,332.9 "/>
<polygon class="st0" points="148.4,315.3 145,333.2 163.5,345.2 "/>
<polygon class="st0" points="191,389.4 168.2,390.7 158,347 184.3,334.4 "/>
<polygon class="st0" points="270.1,327.7 249,348.9 217.9,318.1 244.8,304.1 "/>
<polygon class="st0" points="306.3,340.4 302.5,368.5 272.7,361.3 248.9,348.9 269.8,327.4 "/>
<polygon class="st0" points="183,394.4 174.3,394.2 168.2,390.7 191,389.4 "/>
<polygon class="st0" points="334,261 268.5,293.1 254,263.5 319.4,231.2 "/>
<polygon points="201.1,340.5 193.9,339.7 183.8,334.2 190.3,331.2 "/>
<polygon points="359,215.8 319.3,231.1 325.5,243.6 370.8,223.1 "/>
<rect x="323.3" y="221.9" transform="matrix(0.8975 -0.441 0.441 0.8975 -61.9021 189.026)" width="104.8" height="11.6"/>
<polygon points="374.5,221.8 324.7,246.2 322.9,244.4 358,227.5 "/>
<polygon points="408.1,185 401.1,187.3 402.5,208 415.7,201.5 "/>
<path class="st0" d="M254.4,263.2l-106,52.1l14.5,29.6l106-52.1L254.4,263.2z M159.2,323.1l-1.2-2.4l49.8-24.7l1.2,2.4L159.2,323.1z
	"/>
</svg>
