<?xml version="1.0" encoding="utf-8"?>
<!-- Generator: Adobe Illustrator 24.0.1, SVG Export Plug-In . SVG Version: 6.00 Build 0)  -->
<svg version="1.1" id="Layer_1" xmlns="http://www.w3.org/2000/svg" xmlns:xlink="http://www.w3.org/1999/xlink" x="0px" y="0px"
	 viewBox="0 0 535 617.7" style="enable-background:new 0 0 535 617.7;" xml:space="preserve">
<style type="text/css">
	.st0{fill:#010101;}
</style>
<g id="Layer_95">
	<path class="st0" d="M267.5,28.9l242.5,140v280l-242.5,140L25,448.9v-280L267.5,28.9 M267.5,0L255,7.2l-242.5,140L0,154.4v308.9
		l12.5,7.2l242.5,140l12.5,7.2l12.5-7.2l242.5-140l12.5-7.2V154.4l-12.5-7.2L280,7.2L267.5,0L267.5,0z"/>
</g>
<g>
	
		<rect x="322.9" y="273.6" transform="matrix(0.8961 -0.4439 0.4439 0.8961 -87.5918 191.8735)" class="st0" width="86" height="18.8"/>
	<polygon class="st0" points="500.6,216.9 484.7,234.1 405.3,274.1 397.3,257.1 463.4,225.1 	"/>
	
		<rect x="400.1" y="245.8" transform="matrix(0.8961 -0.4439 0.4439 0.8961 -75.5587 206.4811)" class="st0" width="6.1" height="37.7"/>
</g>
<g>
	<polygon class="st0" points="136.7,387.1 81.7,450.1 46.9,404 113.1,356 	"/>
	<polygon class="st0" points="181.7,342.1 136.5,387 113,356.3 160.8,328.2 	"/>
	<polygon class="st0" points="164.6,308.2 160.7,328.5 181.7,342.1 	"/>
	<polygon class="st0" points="212.9,392.2 187,393.7 175.5,344.2 205.3,329.9 	"/>
	<polygon class="st0" points="302.6,322.3 278.6,346.3 243.4,311.4 273.9,295.5 	"/>
	<polygon class="st0" points="343.6,336.7 339.3,368.5 305.5,360.4 278.5,346.3 302.2,321.9 	"/>
	<polygon class="st0" points="203.8,397.9 193.9,397.7 187,393.7 212.9,392.2 	"/>
	<polygon class="st0" points="375,246.7 300.7,283.1 284.3,249.5 358.4,212.9 	"/>
	<polygon points="224.3,336.8 216.2,335.9 204.7,329.7 212.1,326.3 	"/>
	<polygon points="403.3,195.4 358.3,212.8 365.4,226.9 416.7,203.7 	"/>
	<rect x="362.9" y="202.3" transform="matrix(0.8975 -0.441 0.441 0.8975 -48.8516 207.6399)" width="118.8" height="13.2"/>
	<polygon points="420.9,202.2 364.5,229.9 362.4,227.8 402.2,208.7 	"/>
	<polygon points="459,160.5 451.1,163.1 452.7,186.6 467.6,179.2 	"/>
	<path class="st0" d="M284.8,249.2l-120.2,59.1l16.4,33.6l120.2-59.1L284.8,249.2z M176.8,317.1l-1.4-2.7l56.5-28l1.4,2.7
		L176.8,317.1z"/>
</g>
</svg>
