<?xml version="1.0" encoding="utf-8"?>
<!-- Generator: Adobe Illustrator 24.0.1, SVG Export Plug-In . SVG Version: 6.00 Build 0)  -->
<svg version="1.1" id="Layer_1" xmlns="http://www.w3.org/2000/svg" xmlns:xlink="http://www.w3.org/1999/xlink" x="0px" y="0px"
	 viewBox="0 0 535 617.7" style="enable-background:new 0 0 535 617.7;" xml:space="preserve">
<style type="text/css">
	.st0{fill:#010101;}
	.st1{fill:none;stroke:#FFFFFF;stroke-width:6;stroke-miterlimit:10;}
	.st2{fill:none;stroke:#FFFFFF;stroke-width:4;stroke-miterlimit:10;}
	.st3{fill:#FFFFFF;}
</style>
<g id="Layer_95">
	<path class="st0" d="M267.5,28.9l242.5,140v280l-242.5,140L25,448.9v-280L267.5,28.9 M267.5,0L255,7.2l-242.5,140L0,154.4v308.9
		l12.5,7.2l242.5,140l12.5,7.2l12.5-7.2l242.5-140l12.5-7.2V154.4l-12.5-7.2L280,7.2L267.5,0L267.5,0z"/>
</g>
<g>
	
		<rect x="316.3" y="273.2" transform="matrix(0.8898 -0.4564 0.4564 0.8898 -89.3708 195.11)" class="st0" width="86" height="18.8"/>
	<polygon class="st0" points="493,214.6 477.4,232 398.5,273.1 390.3,256.2 455.9,223.3 	"/>
	
		<rect x="393.2" y="244.8" transform="matrix(0.8898 -0.4564 0.4564 0.8898 -76.6709 209.9171)" class="st0" width="6.1" height="37.7"/>
</g>
<g>
	<polygon class="st0" points="131.5,389.8 77.4,453.6 42,408 107.5,359.1 	"/>
	<polygon class="st0" points="175.9,344.2 131.3,389.7 107.4,359.4 154.8,330.6 	"/>
	<polygon class="st0" points="158.3,310.6 154.7,330.9 175.9,344.2 	"/>
	<polygon class="st0" points="207.8,393.9 181.9,395.7 169.7,346.4 199.3,331.7 	"/>
	<polygon class="st0" points="296.5,322.7 272.9,347.1 237.2,312.7 267.4,296.3 	"/>
	<polygon class="st0" points="337.7,336.5 333.9,368.4 299.9,360.8 272.8,347.1 296.1,322.3 	"/>
	<polygon class="st0" points="198.8,399.7 188.9,399.6 181.9,395.7 207.8,393.9 	"/>
	<polygon class="st0" points="367.8,246.1 294.1,283.6 277.2,250.2 350.8,212.6 	"/>
	<polygon points="218.4,338.3 210.3,337.5 198.7,331.5 206.1,328 	"/>
	<polygon points="395.4,194.4 350.7,212.5 358,226.5 408.9,202.5 	"/>
	<rect x="355.2" y="201.1" transform="matrix(0.8913 -0.4535 0.4535 0.8913 -49.0859 210.6096)" width="118.8" height="13.2"/>
	<polygon points="413.1,201 357.1,229.5 355,227.4 394.5,207.7 	"/>
	<polygon points="450.6,158.8 442.8,161.5 444.7,184.9 459.5,177.3 	"/>
	<path class="st0" d="M277.7,249.9l-119.4,60.8l16.9,33.4l119.4-60.8L277.7,249.9z M170.7,319.3l-1.4-2.7l56.1-28.8l1.4,2.7
		L170.7,319.3z"/>
</g>
<line class="st1" x1="238.3" y1="315.5" x2="271.6" y2="298.5"/>
<line class="st2" x1="170" y1="318" x2="226.1" y2="289.4"/>
<polygon class="st3" points="86.9,417.8 66.9,420.6 79.3,436.6 "/>
</svg>
